#!OML:ASF E:\emotionWalksFemale\Project 1\Capture day 1\Session 1\Female1.ASF
:FULLY-SPECIFIED
:DEGREES
438
root 6.39738 15.5315 20.1762 197.191 79.9825 -523.391
lowerback 8.06752 0.719074 1.02792
upperback -5.02998 1.18162 0.415445
thorax -9.88787 0.53918 -0.332369
lowerneck -5.42839 -5.7688 -9.05735
upperneck 6.99835 -7.59807 7.97203
head 3.62204 -3.67237 3.50077
rclavicle -2.06736e-014 -8.74653e-015
rhumerus -45.7386 7.61923 -85.9497
rradius 40.4699
rwrist 16.5342
rhand -3.22117 -55.0507
rfingers 7.12502
rthumb 22.5017 -83.7596
lclavicle -2.06736e-014 -8.74653e-015
lhumerus -28.3137 -8.85821 87.8787
lradius 48.3841
lwrist -6.41247
lhand -9.22836 -39.2437
lfingers 7.12502
lthumb 16.7266 -9.94427
rfemur 1.35717 19.8089 29.6649
rtibia 8.89394
rfoot -13.1782 -39.9726
rtoes 12.2181
lfemur -8.98585 -24.7456 -20.3537
ltibia 25.2802
lfoot -22.5704 18.9516
ltoes -41.3108
439
root 6.40301 15.5374 20.1922 196.128 80.5692 -524.378
lowerback 8.01242 0.830135 0.597922
upperback -5.06263 1.27778 0.412946
thorax -9.89885 0.614817 -0.108721
lowerneck -5.37115 -5.70586 -9.28028
upperneck 7.31841 -7.5089 7.93096
head 3.70821 -3.6364 3.52846
rclavicle 2.14687e-014 1.05356e-014
rhumerus -45.3951 7.36805 -85.8843
rradius 40.0836
rwrist 16.4571
rhand -3.76557 -56.4661
rfingers 7.12502
rthumb 21.9791 -85.2374
lclavicle 2.14687e-014 1.05356e-014
lhumerus -27.872 -8.61117 87.8829
lradius 48.6467
lwrist -5.984
lhand -9.18815 -38.4695
lfingers 7.12502
lthumb 16.7653 -9.17339
rfemur 1.38978 20.2823 29.457
rtibia 9.17818
rfoot -13.6176 -39.8819
rtoes 11.5321
lfemur -8.78808 -22.9634 -20.5945
ltibia 25.066
lfoot -22.3833 17.5043
ltoes -41.6412
440
root 6.41016 15.53 20.2083 195.377 81.094 -525.127
lowerback 7.79825 0.922238 0.192195
upperback -5.09621 1.35424 0.433905
thorax -9.81806 0.6813 0.132358
lowerneck -5.40384 -5.60856 -9.36794
upperneck 7.70496 -7.37664 7.86059
head 3.81934 -3.5746 3.52583
rclavicle -3.72721e-014 -3.37934e-015
rhumerus -44.9081 6.8776 -85.6019
rradius 39.6458
rwrist 16.3229
rhand -3.3648 -57.0887
rfingers 7.12502
rthumb 22.3638 -85.8143
lclavicle -3.72721e-014 -3.37934e-015
lhumerus -27.4301 -8.17809 87.9008
lradius 48.8205
lwrist -5.62159
lhand -8.71065 -38.1173
lfingers 7.12502
lthumb 17.225 -8.86069
rfemur 1.26796 20.7277 29.2919
rtibia 9.61067
rfoot -13.7419 -39.9149
rtoes 10.4925
lfemur -8.34046 -25.1809 -21.0471
ltibia 24.8656
lfoot -22.258 19.3962
ltoes -39.1626
441
root 6.4148 15.5277 20.2201 194.654 81.4255 -525.828
lowerback 7.68489 0.916899 0.11169
upperback -5.11586 1.32586 0.305416
thorax -9.77063 0.668271 0.0469514
lowerneck -5.40082 -5.51728 -8.91649
upperneck 7.89796 -7.25798 7.39653
head 3.83308 -3.52273 3.31746
rclavicle -1.50082e-014 -1.45113e-014
rhumerus -44.3568 6.35279 -85.5684
rradius 39.1746
rwrist 16.0395
rhand -2.78128 -57.5926
rfingers 7.12502
rthumb 22.9239 -86.2498
lclavicle -1.50082e-014 -1.45113e-014
lhumerus -26.8039 -7.99361 87.6542
lradius 48.8404
lwrist -5.08004
lhand -8.32628 -37.957
lfingers 7.12502
lthumb 17.5949 -8.73317
rfemur 1.09743 20.9931 29.1634
rtibia 10.1121
rfoot -13.26 -40.0755
rtoes 8.87386
lfemur -8.17302 -24.5288 -21.2245
ltibia 24.66
lfoot -21.6811 19.1875
ltoes -39.087
442
root 6.41879 15.5297 20.2277 193.437 81.7212 -527.134
lowerback 7.43839 0.886051 0.140712
upperback -5.13139 1.26907 0.0896261
thorax -9.63493 0.631408 -0.185926
lowerneck -5.49518 -5.38879 -8.63993
upperneck 8.16233 -7.10552 7.33938
head 3.90389 -3.43813 3.26159
rclavicle 1.60767e-014 1.17283e-014
rhumerus -43.7897 5.87789 -85.6878
rradius 38.7146
rwrist 15.9288
rhand -2.09425 -58.7094
rfingers 7.12502
rthumb 23.583 -87.2833
lclavicle 1.60767e-014 1.17283e-014
lhumerus -26.174 -7.90217 87.4023
lradius 48.8827
lwrist -4.10999
lhand -7.93618 -37.7942
lfingers 7.12502
lthumb 17.9702 -8.60445
rfemur 0.830836 21.0188 28.8722
rtibia 10.4972
rfoot -13.1363 -39.9036
rtoes 8.42471
lfemur -8.23169 -23.7041 -21.4153
ltibia 24.5059
lfoot -21.0224 18.8784
ltoes -39.9671
443
root 6.42828 15.5331 20.2369 192.396 82.0558 -528.339
lowerback 6.99242 0.896154 0.0598488
upperback -5.14302 1.26701 -0.00417037
thorax -9.38233 0.634543 -0.231849
lowerneck -5.69537 -5.29059 -8.55948
upperneck 8.55639 -6.97068 7.24426
head 4.03931 -3.36766 3.22079
rclavicle -4.19933e-015 7.95139e-016
rhumerus -43.2675 5.56572 -85.6988
rradius 38.2563
rwrist 16.0531
rhand -1.87832 -60.2778
rfingers 7.12502
rthumb 23.7901 -88.825
lclavicle -4.19933e-015 7.95139e-016
lhumerus -25.6147 -7.40879 87.3436
lradius 48.8986
lwrist -3.37462
lhand -7.42201 -37.5959
lfingers 7.12502
lthumb 18.4649 -8.45223
rfemur 0.638596 20.9874 28.5692
rtibia 10.563
rfoot -13.2551 -39.5743
rtoes 8.83984
lfemur -8.30596 -23.9255 -21.6154
ltibia 24.4143
lfoot -20.7451 19.173
ltoes -39.3426
444
root 6.44032 15.5354 20.2521 192.053 82.3408 -528.732
lowerback 6.72217 0.896098 -0.104041
upperback -5.17844 1.25686 0.060788
thorax -9.26612 0.644478 -0.0649313
lowerneck -5.68825 -5.11379 -8.66851
upperneck 8.6944 -6.7215 7.18956
head 4.06169 -3.25072 3.23753
rclavicle -1.85864e-014 -3.97569e-015
rhumerus -42.8556 5.59048 -85.6729
rradius 37.8054
rwrist 16.0148
rhand -2.44179 -61.0117
rfingers 7.12502
rthumb 23.2496 -89.6282
lclavicle -1.85864e-014 -3.97569e-015
lhumerus -25.2263 -6.98727 87.3503
lradius 48.9986
lwrist -2.79759
lhand -6.7065 -37.5361
lfingers 7.12502
lthumb 19.1531 -8.45921
rfemur 0.645869 21.0497 28.5043
rtibia 10.5241
rfoot -13.0507 -39.4632
rtoes 8.2364
lfemur -8.24414 -24.1831 -21.6998
ltibia 24.3597
lfoot -20.7258 19.5112
ltoes -37.9742
445
root 6.44933 15.535 20.2693 192.274 82.5597 -528.427
lowerback 6.71443 0.848187 -0.168366
upperback -5.22704 1.19474 0.15203
thorax -9.31818 0.622548 0.0765955
lowerneck -5.5879 -4.94419 -8.95083
upperneck 8.77962 -6.4904 7.33424
head 4.06599 -3.14071 3.34509
rclavicle 1.56046e-014 5.36719e-015
rhumerus -42.526 5.91182 -85.8947
rradius 37.3067
rwrist 16.188
rhand -4.16227 -61.7008
rfingers 7.12502
rthumb 21.5981 -269.484
lclavicle 1.56046e-014 5.36719e-015
lhumerus -24.9661 -6.92583 87.3981
lradius 49.1352
lwrist -1.8905
lhand -6.37089 -37.6659
lfingers 7.12502
lthumb 19.4758 -8.62131
rfemur 0.843343 21.1778 28.634
rtibia 10.3903
rfoot -12.5293 -39.56
rtoes 6.60379
lfemur -8.0693 -24.2912 -21.7145
ltibia 24.3389
lfoot -20.6192 19.9878
ltoes -37.2754
446
root 6.45673 15.5353 20.2839 192.663 82.7573 -527.924
lowerback 6.76918 0.819383 -0.0764573
upperback -5.25599 1.16688 0.155031
thorax -9.38044 0.603143 0.0310594
lowerneck -5.55148 -4.84329 -9.07676
upperneck 8.91855 -6.35951 7.43561
head 4.09832 -3.0755 3.40581
rclavicle 2.26366e-014 8.54774e-015
rhumerus -42.2536 6.31118 -86.4634
rradius 36.6849
rwrist 16.2379
rhand -8.06955 -63.9195
rfingers 7.12502
rthumb 17.8419 -266.879
lclavicle 2.26366e-014 8.54774e-015
lhumerus -24.6405 -7.09864 87.465
lradius 49.1147
lwrist -0.715804
lhand -6.82917 -37.5336
lfingers 7.12502
lthumb 19.0351 -8.445
rfemur 1.1216 21.301 28.7757
rtibia 10.13
rfoot -12.1601 -39.5574
rtoes 6.06577
lfemur -7.87929 -24.2677 -21.7047
ltibia 24.3511
lfoot -20.753 20.0353
ltoes -36.1726
447
root 6.46508 15.5375 20.2958 192.568 82.9332 -527.967
lowerback 6.73157 0.762291 -0.0405352
upperback -5.29208 1.09528 0.154236
thorax -9.39676 0.566486 0.0208067
lowerneck -5.64969 -4.75825 -8.95006
upperneck 9.22402 -6.24001 7.25004
head 4.18757 -3.01833 3.33248
rclavicle -1.43373e-014 -3.37934e-015
rhumerus -42.0054 6.60356 -86.8921
rradius 36.1596
rwrist 16.8528
rhand -7.95693 -63.4428
rfingers 7.12502
rthumb 17.9503 -267.366
lclavicle -1.43373e-014 -3.37934e-015
lhumerus -24.4363 -6.27145 87.4351
lradius 49.1808
lwrist -0.504109
lhand -6.63466 -37.6537
lfingers 7.12502
lthumb 19.2222 -8.5837
rfemur 1.35837 21.2819 28.8088
rtibia 9.84076
rfoot -12.2373 -39.3043
rtoes 7.37598
lfemur -7.76111 -24.3252 -21.7527
ltibia 24.3883
lfoot -20.9071 20.007
ltoes -35.1668
448
root 6.47145 15.5432 20.3081 192.475 83.0402 -528.051
lowerback 6.68008 0.636193 -0.0336872
upperback -5.35108 0.933217 0.207422
thorax -9.43136 0.490296 0.0974583
lowerneck -5.4997 -4.54678 -8.84982
upperneck 9.26565 -5.95093 7.0089
head 4.14102 -2.88695 3.26371
rclavicle -5.69021e-015 -3.77691e-015
rhumerus -41.7579 6.97819 -87.2482
rradius 35.7652
rwrist 17.398
rhand -0.735744 -58.9614
rfingers 7.12502
rthumb 24.8855 -447.361
lclavicle -5.69021e-015 -3.77691e-015
lhumerus -24.355 -2.95793 87.3369
lradius 49.37
lwrist -2.62487
lhand -5.22185 -38.6907
lfingers 7.12502
lthumb 20.5802 -9.76162
rfemur 1.54673 21.2014 28.8508
rtibia 9.57266
rfoot -12.2228 -39.0583
rtoes 8.5136
lfemur -7.75717 -24.3329 -21.8084
ltibia 24.4785
lfoot -20.3196 20.5702
ltoes -37.3741
449
root 6.47226 15.5421 20.3174 193.501 83.0531 -526.947
lowerback 6.73294 0.554899 0.209139
upperback -5.34963 0.852991 0.237974
thorax -9.45777 0.436175 0.00485461
lowerneck -5.55707 -4.44303 -8.65841
upperneck 9.3665 -5.80445 6.7867
head 4.15732 -2.81786 3.17194
rclavicle 1.20762e-014 1.07344e-014
rhumerus -41.454 7.17912 -87.5621
rradius 35.4893
rwrist 17.5702
rhand -2.64352 -58.299
rfingers 7.12502
rthumb 23.0561 -446.94
lclavicle 1.20762e-014 1.07344e-014
lhumerus -24.7174 -7.33357 87.4127
lradius 50.2311
lwrist 1.81787
lhand -6.51468 -37.3597
lfingers 7.12502
lthumb 19.3375 -8.30122
rfemur 1.7704 21.0526 29.0707
rtibia 9.29359
rfoot -12.1765 -38.8065
rtoes 9.4312
lfemur -7.7007 -24.9679 -21.7816
ltibia 24.6265
lfoot -19.533 21.6931
ltoes -39.9736
